<svg class="svg-icon" style="width: 1em; height: 1em;vertical-align: middle;fill: currentColor;overflow: hidden;" viewBox="0 0 1024 1024" version="1.1" xmlns="http://www.w3.org/2000/svg"><path d="M535.104 866.88c0 12.736-10.368 23.104-23.104 23.104-12.736 0-23.104-10.304-23.104-23.104S512 819.648 512 819.648 535.104 854.08 535.104 866.88z"  /><path d="M427.712 831.744c0 12.736-10.368 23.104-23.104 23.104-12.736 0-23.104-10.304-23.104-23.104s23.104-47.168 23.104-47.168S427.712 818.944 427.712 831.744z"  /><path d="M315.712 820.16c0 12.736-10.368 23.104-23.104 23.104-12.736 0-23.104-10.304-23.104-23.104s23.104-47.168 23.104-47.168S315.712 807.424 315.712 820.16z"  /><path d="M642.496 831.744c0 12.736-10.368 23.104-23.104 23.104s-23.104-10.304-23.104-23.104 23.104-47.168 23.104-47.168S642.496 818.944 642.496 831.744z"  /><path d="M754.432 820.16c0 12.736-10.368 23.104-23.104 23.104-12.736 0-23.104-10.304-23.104-23.104s23.104-47.168 23.104-47.168S754.432 807.424 754.432 820.16z"  /><path d="M921.024 445.952c-1.408-9.856-4.032-19.328-6.784-28.736-5.056-17.344-12.352-33.6-21.568-48.704-35.648-58.688-99.264-98.624-172.672-99.648-8.896-15.104-19.456-28.864-30.848-41.728-11.456-12.928-24.192-24.384-37.76-34.88C630.144 175.808 606.848 161.984 581.632 152.384c-16-6.144-32.576-10.56-49.664-13.632C516.416 136 500.608 134.08 484.416 134.08c-130.496 0-241.216 90.56-267.648 216.96-67.328 22.4-116.096 85.888-116.096 160.704 0 93.44 76.032 169.472 169.408 169.472 33.728 0 65.792-9.728 93.504-28.16 37.376 18.432 78.848 28.16 120.832 28.16 43.584 0 86.656-10.56 125.12-30.4 32.32 19.904 69.056 30.4 107.584 30.4 107.648 0 196.16-83.008 205.248-188.352 0.512-5.888 0.896-11.84 0.896-17.856C923.328 465.088 922.368 455.424 921.024 445.952zM865.28 490.752c-7.936 74.752-71.36 133.184-148.16 133.184-33.28 0-64.768-10.752-91.008-31.04C613.632 583.296 595.712 585.6 586.048 598.08 585.856 598.336 585.728 598.592 585.6 598.784c-30.976 16.384-65.792 25.152-101.12 25.152-37.504 0-74.368-9.728-106.752-28.096C369.6 591.232 360.128 591.104 352.192 594.56 347.584 595.328 343.168 597.12 339.264 600.128 319.36 615.744 295.424 623.936 270.144 623.936c-61.888 0-112.256-50.368-112.256-112.256 0-61.888 50.368-112.256 112.256-112.256 31.232 0 61.312 13.184 82.496 36.096C363.328 447.104 381.44 447.872 393.024 437.12c11.584-10.688 12.352-28.8 1.6-40.384-30.144-32.64-72.192-52.16-116.416-54.272 27.84-89.152 110.208-151.296 206.272-151.296 6.08 0 12.16 0.576 18.176 1.088C518.72 193.664 534.4 196.8 549.568 201.6 578.88 210.88 605.568 226.56 628.48 246.976c10.496 9.344 20.48 19.392 29.056 30.848-5.12 1.536-10.112 3.456-15.104 5.376C636.16 285.568 630.336 289.088 624.32 292.16c-4.992 2.56-10.24 4.544-15.04 7.488C600.256 305.152 591.488 311.104 583.36 318.08c-12.032 10.24-13.44 28.288-3.2 40.32 10.24 12.032 28.288 13.44 40.32 3.2 4.928-4.224 10.368-7.744 15.808-11.2 14.144-9.152 29.696-15.744 46.016-19.712 11.392-2.752 22.976-4.672 34.816-4.672 55.552 0 103.68 30.784 129.28 75.968 7.104 12.544 12.8 25.984 16 40.384 0.448 2.112 0.384 4.416 0.768 6.592 1.536 8.512 2.944 17.088 2.944 26.048C866.176 480.256 865.856 485.568 865.28 490.752z"  /></svg>