<svg class="svg-icon" style="width: 1em; height: 1em;vertical-align: middle;fill: currentColor;overflow: hidden;" viewBox="0 0 1024 1024" version="1.1" xmlns="http://www.w3.org/2000/svg"><path d="M756.775877 436.349215m-208.813981 0a208.813981 208.813981 0 1 0 417.627962 0 208.813981 208.813981 0 1 0-417.627962 0Z" fill="#91E0FC" /><path d="M285.864348 227.535234v-10.080675a217.454559 217.454559 0 1 1 403.226997 116.64781 200.173402 200.173402 0 0 1-293.779669 267.857934 208.813981 208.813981 0 1 1-128.168581-374.425069z" fill="#AAE9FF" /><path d="M568.123246 527.075289l30.242025-7.200482a4.320289 4.320289 0 0 0 4.320289-5.760385 5.760386 5.760386 0 0 0-5.760385-2.880193l-40.3227 10.080675-31.682121-17.281157 34.562314-18.721254 40.322699 10.080675h1.440097a5.760386 5.760386 0 0 0 5.760386-4.320289 4.320289 4.320289 0 0 0-4.32029-5.760386l-30.242025-7.200482 34.562315-17.281157a4.320289 4.320289 0 0 0 1.440096-7.200482 5.760386 5.760386 0 0 0-7.200482-1.440096l-36.002411 18.721253 8.640579-27.361832a4.320289 4.320289 0 0 0-4.320289-5.760386 5.760386 5.760386 0 0 0-5.760386 2.880193l-11.520771 37.442507-33.122218 18.721254v-37.442507l30.242025-27.361832a4.320289 4.320289 0 0 0 0-7.200482 5.760386 5.760386 0 0 0-7.200482 0L519.159968 446.42989v-38.882603a5.760386 5.760386 0 0 0-10.080675 0V446.42989l-21.601446-20.16135a5.760386 5.760386 0 0 0-7.200482 0 4.320289 4.320289 0 0 0 0 7.200482l30.242024 27.361832v37.442507L475.957075 479.552108l-11.520771-37.442507a5.760386 5.760386 0 0 0-5.760386-2.880193 4.320289 4.320289 0 0 0-4.320289 5.760385l8.640579 27.361832-36.002411-18.721253a5.760386 5.760386 0 0 0-7.200482 1.440096 4.320289 4.320289 0 0 0 1.440097 7.200482l36.00241 18.721254-30.242025 7.200482a4.320289 4.320289 0 0 0-4.320289 5.760386 5.760386 5.760386 0 0 0 5.760386 2.880193l40.322699-10.080675 34.562314 17.281157-30.242024 15.84106-40.3227-8.640578a5.760386 5.760386 0 0 0-5.760386 2.880193 4.320289 4.320289 0 0 0 2.880193 5.760385l30.242025 7.200482-40.3227 21.601447a4.320289 4.320289 0 0 0-2.880193 5.760385 5.760386 5.760386 0 0 0 4.32029 2.880193h2.880192l40.3227-21.601446-8.640578 27.361832a4.320289 4.320289 0 0 0 4.320289 5.760385 5.760386 5.760386 0 0 0 5.760385-2.880192l11.520772-37.442507 30.242025-15.841061v33.122218l-30.242025 27.361832a4.320289 4.320289 0 0 0 0 7.200482 5.760386 5.760386 0 0 0 7.200482 0l21.601446-20.16135v43.202893a5.760386 5.760386 0 0 0 10.080675 0v-43.202893l21.601446 20.16135a5.760386 5.760386 0 0 0 7.200483 0 4.320289 4.320289 0 0 0 0-7.200482L519.159968 545.796543v-33.122218l30.242025 15.841061 11.520771 37.442507a5.760386 5.760386 0 0 0 5.760386 2.880192 4.320289 4.320289 0 0 0 4.320289-5.760385l-8.640578-27.361832 40.322699 21.601446h2.880193l2.880193-2.880193a4.320289 4.320289 0 0 0 0-4.320289L605.565753 547.236639z" fill="#D9F5FF" /><path d="M467.316497 786.292645l30.242025-7.200482a4.320289 4.320289 0 0 0 4.320289-5.760386 5.760386 5.760386 0 0 0-5.760386-2.880193l-40.322699 10.080675-31.682122-17.281157 34.562314-18.721253 40.3227 10.080675h1.440097a5.760386 5.760386 0 0 0 5.760385-4.32029 4.320289 4.320289 0 0 0-4.320289-5.760385l-30.242025-7.200482 34.562314-17.281158a4.320289 4.320289 0 0 0 1.440097-7.200482 5.760386 5.760386 0 0 0-7.200482-1.440096l-36.002411 18.721253 8.640579-27.361832a4.320289 4.320289 0 0 0-4.32029-5.760385 5.760386 5.760386 0 0 0-5.760385 2.880193l-11.520772 37.442507-33.122217 18.721253v-37.442507l30.242024-27.361832a4.320289 4.320289 0 0 0 0-7.200482 5.760386 5.760386 0 0 0-7.200482 0L418.353219 705.647245v-38.882603a5.760386 5.760386 0 0 0-10.080675 0V705.647245l-21.601447-20.16135a5.760386 5.760386 0 0 0-7.200482 0 4.320289 4.320289 0 0 0 0 7.200483l30.242025 27.361831v37.442507L375.150326 738.769463l-11.520771-37.442507a5.760386 5.760386 0 0 0-5.760386-2.880193 4.320289 4.320289 0 0 0-4.320289 5.760386l8.640578 27.361832-36.00241-18.721254a5.760386 5.760386 0 0 0-7.200482 1.440097 4.320289 4.320289 0 0 0 1.440096 7.200482l36.002411 18.721253-30.242025 7.200482a4.320289 4.320289 0 0 0-4.320289 5.760386 5.760386 5.760386 0 0 0 5.760385 2.880193l40.3227-10.080675 34.562314 17.281157-30.242025 15.841061-40.322699-8.640579a5.760386 5.760386 0 0 0-5.760386 2.880193 4.320289 4.320289 0 0 0 2.880193 5.760386l30.242024 7.200482-40.322699 21.601446a4.320289 4.320289 0 0 0-2.880193 5.760386 5.760386 5.760386 0 0 0 4.320289 2.880193h2.880193l40.3227-21.601447-8.640579 27.361832a4.320289 4.320289 0 0 0 4.320289 5.760386 5.760386 5.760386 0 0 0 5.760386-2.880193l11.520772-37.442507 30.242024-15.84106v33.122217l-30.242024 27.361832a4.320289 4.320289 0 0 0 0 7.200482 5.760386 5.760386 0 0 0 7.200482 0l21.601446-20.16135v43.202893a5.760386 5.760386 0 0 0 10.080675 0v-43.202893l21.601446 20.16135a5.760386 5.760386 0 0 0 7.200482 0 4.320289 4.320289 0 0 0 0-7.200482L418.353219 805.013898v-33.122217l30.242024 15.84106 11.520772 37.442507a5.760386 5.760386 0 0 0 5.760385 2.880193 4.320289 4.320289 0 0 0 4.32029-5.760386l-8.640579-27.361832 40.3227 21.601447h2.880193l2.880193-2.880193a4.320289 4.320289 0 0 0 0-4.32029L504.759004 806.453995zM654.529031 944.703251l30.242025-7.200482a4.320289 4.320289 0 0 0 4.320289-5.760386 5.760386 5.760386 0 0 0-5.760385-2.880193l-40.3227 10.080675-31.682121-17.281157 34.562314-18.721253 40.3227 10.080675h1.440096a5.760386 5.760386 0 0 0 5.760386-4.32029 4.320289 4.320289 0 0 0-4.32029-5.760385l-30.242024-7.200482 34.562314-17.281157a4.320289 4.320289 0 0 0 1.440096-7.200483 5.760386 5.760386 0 0 0-7.200482-1.440096l-36.00241 18.721253 8.640578-27.361831a4.320289 4.320289 0 0 0-4.320289-5.760386 5.760386 5.760386 0 0 0-5.760386 2.880193l-11.520771 37.442507-33.122218 18.721253v-37.442507l30.242025-27.361832a4.320289 4.320289 0 0 0 0-7.200482 5.760386 5.760386 0 0 0-7.200482 0L605.565753 864.057851v-38.882603a5.760386 5.760386 0 0 0-10.080675 0V864.057851l-21.601446-20.161349a5.760386 5.760386 0 0 0-7.200482 0 4.320289 4.320289 0 0 0 0 7.200482l30.242025 27.361832v37.442506L562.362861 897.180069l-11.520772-37.442507a5.760386 5.760386 0 0 0-5.760385-2.880193 4.320289 4.320289 0 0 0-4.32029 5.760386l8.640579 27.361832-36.002411-18.721254a5.760386 5.760386 0 0 0-7.200482 1.440097 4.320289 4.320289 0 0 0 1.440097 7.200482l36.00241 18.721253-30.242025 7.200483a4.320289 4.320289 0 0 0-4.320289 5.760385 5.760386 5.760386 0 0 0 5.760386 2.880193l40.322699-10.080675 34.562315 17.281157-30.242025 15.841061-40.3227-8.640579a5.760386 5.760386 0 0 0-5.760386 2.880193 4.320289 4.320289 0 0 0 2.880193 5.760386l30.242025 7.200482-40.3227 21.601446a4.320289 4.320289 0 0 0-2.880193 5.760386 5.760386 5.760386 0 0 0 4.32029 2.880193h2.880192l40.3227-21.601447-8.640578 27.361832a4.320289 4.320289 0 0 0 4.320289 5.760386 5.760386 5.760386 0 0 0 5.760386-2.880193l11.520771-37.442507 30.242025-15.84106v33.122217l-30.242025 27.361832a4.320289 4.320289 0 0 0 0 7.200482 5.760386 5.760386 0 0 0 7.200482 0l21.601446-20.16135v43.202893a5.760386 5.760386 0 0 0 10.080675 0v-43.202893l21.601447 20.16135a5.760386 5.760386 0 0 0 7.200482 0 4.320289 4.320289 0 0 0 0-7.200482L605.565753 963.424504v-33.122217l30.242025 15.84106 11.520771 37.442507a5.760386 5.760386 0 0 0 5.760386 2.880193 4.320289 4.320289 0 0 0 4.320289-5.760386l-8.640578-27.361832 40.322699 21.601447h2.880193l2.880193-2.880193a4.320289 4.320289 0 0 0 0-4.320289L691.971538 964.864601z" fill="#9BE5FF" /></svg>