<svg class="svg-icon" style="width: 1em; height: 1em;vertical-align: middle;fill: currentColor;overflow: hidden;" viewBox="0 0 1024 1024" version="1.1" xmlns="http://www.w3.org/2000/svg"><path d="M225.05472 464.611328a209.975296 209.975296 0 0 1-2.102272-29.43488c0-54.667264 21.297152-106.04544 59.876352-144.621568 38.670336-38.674432 89.954304-59.881472 144.622592-59.881472 69.93408 0 134.29248 35.195904 172.235776 94.06976a186.200064 186.200064 0 0 1 9.7792 17.002496l-61.801472 31.72352c-2.009088-3.837952-4.11136-7.58784-6.491136-11.24352-25.046016-38.946816-67.555328-62.168064-113.723392-62.168064-74.505216 0-135.02464 60.613632-135.02464 135.02464 0 6.58432 0.459776 13.075456 1.374208 19.565568l-68.745216 9.96352z m0 0M408.9856 202.059776c-19.19488 0-34.738176-15.542272-34.738176-34.741248v-22.489088c0-19.192832 15.543296-34.737152 34.738176-34.737152 19.198976 0 34.741248 15.543296 34.741248 34.737152v22.489088c0 19.198976-15.542272 34.741248-34.741248 34.741248z m0 0M244.158464 260.293632c-8.868864 0-17.82784-3.383296-24.590336-10.149888l-15.908864-15.904768c-13.530112-13.530112-13.530112-35.562496 0-49.092608 13.530112-13.530112 35.562496-13.530112 49.092608 0l15.908864 15.908864c13.530112 13.529088 13.530112 35.5584 0 49.088512-6.766592 6.766592-15.63648 10.149888-24.502272 10.149888z m0 0M159.136768 424.298496h-22.489088c-19.192832 0-34.737152-15.543296-34.737152-34.741248 0-19.19488 15.543296-34.738176 34.737152-34.738176h22.489088c19.198976 0 34.741248 15.543296 34.741248 34.738176 0.001024 19.197952-15.542272 34.741248-34.741248 34.741248z m0 0M584.143872 251.152384c-8.869888 0-17.828864-3.383296-24.59136-10.149888-13.529088-13.530112-13.529088-35.559424 0-49.088512l15.904768-15.908864c13.530112-13.530112 35.564544-13.530112 49.092608 0 13.530112 13.530112 13.530112 35.562496 0 49.092608l-15.904768 15.904768c-6.672384 6.765568-15.542272 10.149888-24.501248 10.149888z m0 0" fill="#E69E30" /><path d="M606.32064 892.314624c-5.485568 0-11.060224-1.282048-16.274432-4.11136-16.909312-9.053184-23.309312-30.076928-14.350336-46.990336l16.36352-30.715904c9.053184-16.913408 30.076928-23.314432 46.990336-14.35648 16.913408 9.053184 23.309312 30.077952 14.35136 46.990336l-16.364544 30.715904c-6.213632 11.705344-18.284544 18.46784-30.715904 18.46784z m0 0M674.883584 774.567936c-5.485568 0-11.060224-1.281024-16.274432-4.114432-16.909312-9.048064-23.309312-30.076928-14.350336-46.985216l16.36352-30.72c9.053184-16.913408 30.076928-23.310336 46.990336-14.35136 16.913408 9.048064 23.309312 30.077952 14.35136 46.990336l-16.364544 30.715904c-6.212608 11.792384-18.28352 18.464768-30.715904 18.464768z m0 0" fill="#23A0CD" /><path d="M559.919104 743.575552l56.403968-75.236352H503.515136L428.27776 800.069632h56.403968l-56.403968 112.81408 188.045312-169.30816h-56.403968" fill="#E69E30" /><path d="M845.2352 388.918272c-48.9984-48.910336-113.999872-75.875328-183.202816-75.875328-50.19136 0-98.823168 14.350336-140.783616 41.68192-30.260224 19.658752-55.860224 45.254656-75.513856 75.148288-27.060224-12.342272-56.49408-18.7392-86.665216-18.7392-56.0384 0-108.786688 21.84704-148.461568 61.524992-39.678976 39.67488-61.524992 92.32896-61.524992 148.461568 0 43.334656 13.070336 84.928512 37.937152 120.307712 24.04352 34.281472 57.409536 60.337152 96.356352 75.420672a184.133632 184.133632 0 0 0 18.9696 6.803456l27.385856-64.566272a106.70592 106.70592 0 0 1-19.572736-6.3232l-1.276928-0.543744c-54.029312-20.752384-90.324992-73.411584-90.324992-131.0976 0-77.522944 63.082496-140.511232 140.511232-140.511232 17.257472 0 34.143232 3.162112 50.018304 9.2416a34.965504 34.965504 0 0 0 3.827712 3.011584 61.651968 61.651968 0 0 1 24.86784 34.464768c4.38784 15.265792 18.28352 25.322496 33.456128 25.322496 3.111936 0 6.30784-0.459776 9.418752-1.191936 18.46784-5.208064 29.251584-24.408064 24.041472-42.873856-2.464768-8.761344-5.840896-17.171456-9.993216-25.140224 32.689152-61.674496 97.359872-101.015552 167.323648-101.015552 104.583168 0 189.599744 85.111808 189.599744 189.599744 0 79.087616-48.222208 147.708928-119.062528 175.845376l-41.115648 81.37728c4.998144-0.519168 9.810944-1.170432 13.907968-1.978368 59.515904-10.056704 114.000896-40.955904 153.491456-86.941696 40.134656-46.713856 62.257152-106.502144 62.257152-168.210432 0.004096-69.200896-26.96192-134.29248-75.872256-183.202816z" fill="#989898" /><path d="M408.986624 717.495296m-36.293632 0a36.293632 36.293632 0 1 0 72.587264 0 36.293632 36.293632 0 1 0-72.587264 0Z" fill="#23A0CD" /><path d="M345.450496 853.462016m-36.293632 0a36.293632 36.293632 0 1 0 72.587264 0 36.293632 36.293632 0 1 0-72.587264 0Z" fill="#23A0CD" /></svg>